<?xml version="1.0" encoding="UTF-8" standalone="no"?><!-- Generator: Gravit.io --><svg xmlns="http://www.w3.org/2000/svg" xmlns:xlink="http://www.w3.org/1999/xlink" style="isolation:isolate" viewBox="0 0 40 40" width="40pt" height="40pt"><defs><clipPath id="_clipPath_TtNI6Kkp8EKFCxMTonvhBYIkBDRPqg7I"><rect width="40" height="40"/></clipPath></defs><g clip-path="url(#_clipPath_TtNI6Kkp8EKFCxMTonvhBYIkBDRPqg7I)">
	<path d=" M 4.944 24.957 L 4.983 14.911 L 7.04 14.911 L 7.119 11.865 L 9.097 11.865 L 9.097 9.018 L 11.984 9.018 L 11.984 6.842 L 15.069 6.842 L 15.069 4.944 L 24.996 4.944 L 24.996 7.04 L 28.042 7.04 L 28.042 8.978 L 31.087 8.978 L 31.087 11.984 L 33.104 11.984 L 33.104 14.95 L 35.2 14.95 L 35.2 24.917 L 32.985 24.917 L 32.985 28.081 L 31.047 28.081 L 31.047 30.889 L 28.042 30.889 L 28.042 33.183 L 24.996 33.183 L 24.996 35.121 L 14.99 35.121 L 14.99 32.906 L 11.944 32.906 L 11.944 31.047 L 8.978 31.047 L 8.978 28.042 L 6.882 28.042 L 6.882 25.036 L 4.944 24.957 Z " fill="rgb(227,227,227)" vector-effect="non-scaling-stroke" stroke-width="1" stroke="rgb(168,168,168)" stroke-linejoin="miter" stroke-linecap="square" stroke-miterlimit="3"/>
	<g id="Arms" style="display: none;">
		
	<animateTransform
		attributeName="transform"
		type="rotate"
		from="0 20 20"
		to="-120 20 20"
		dur="1s"
		repeatCount="indefinite" />
		<g id="Arm1">
			<path d=" M 9.316 22.57 C 11.305 28.656 16.622 27.108 21.234 24.996" fill="none" vector-effect="non-scaling-stroke" stroke-width="1" stroke="rgb(240,230,116)" stroke-linejoin="miter" stroke-linecap="square" stroke-miterlimit="3"/><path d=" M 10.266 22.184 C 12.432 26.103 16.43 25.522 20.355 24.891" fill="none" vector-effect="non-scaling-stroke" stroke-width="1" stroke="rgb(240,230,116)" stroke-linejoin="miter" stroke-linecap="square" stroke-miterlimit="3"/><line x1="9.492" y1="21.727" x2="9.809" y2="22.676" vector-effect="non-scaling-stroke" stroke-width="1" stroke="rgb(240,230,116)" stroke-linejoin="miter" stroke-linecap="square" stroke-miterlimit="3"/><path d=" M 9.949 22.535 C 11.898 26.193 15.154 25.924 18.879 25.453" fill="none" vector-effect="non-scaling-stroke" stroke-width="1" stroke="rgb(230,211,158)" stroke-linejoin="miter" stroke-linecap="square" stroke-miterlimit="3"/><path d=" M 11.391 24.82 C 13.011 26.208 14.438 26.052 16.137 26.297" fill="none" vector-effect="non-scaling-stroke" stroke-width="1" stroke="rgb(236,214,188)" stroke-linejoin="miter" stroke-linecap="square" stroke-miterlimit="3"/><line x1="13.781" y1="23.273" x2="14.836" y2="23.344" vector-effect="non-scaling-stroke" stroke-width="1" stroke="rgb(236,214,188)" stroke-linejoin="miter" stroke-linecap="square" stroke-miterlimit="3"/><line x1="18.668" y1="27.457" x2="19.512" y2="26.895" vector-effect="non-scaling-stroke" stroke-width="1" stroke="rgb(236,214,188)" stroke-linejoin="miter" stroke-linecap="square" stroke-miterlimit="3"/>
		</g>
		<g id="Arm2" transform="rotate(120, 20, 20)">
			<path d=" M 9.316 22.57 C 11.305 28.656 16.622 27.108 21.234 24.996" fill="none" vector-effect="non-scaling-stroke" stroke-width="1" stroke="rgb(240,230,116)" stroke-linejoin="miter" stroke-linecap="square" stroke-miterlimit="3"/><path d=" M 10.266 22.184 C 12.432 26.103 16.43 25.522 20.355 24.891" fill="none" vector-effect="non-scaling-stroke" stroke-width="1" stroke="rgb(240,230,116)" stroke-linejoin="miter" stroke-linecap="square" stroke-miterlimit="3"/><line x1="9.492" y1="21.727" x2="9.809" y2="22.676" vector-effect="non-scaling-stroke" stroke-width="1" stroke="rgb(240,230,116)" stroke-linejoin="miter" stroke-linecap="square" stroke-miterlimit="3"/><path d=" M 9.949 22.535 C 11.898 26.193 15.154 25.924 18.879 25.453" fill="none" vector-effect="non-scaling-stroke" stroke-width="1" stroke="rgb(230,211,158)" stroke-linejoin="miter" stroke-linecap="square" stroke-miterlimit="3"/><path d=" M 11.391 24.82 C 13.011 26.208 14.438 26.052 16.137 26.297" fill="none" vector-effect="non-scaling-stroke" stroke-width="1" stroke="rgb(236,214,188)" stroke-linejoin="miter" stroke-linecap="square" stroke-miterlimit="3"/><line x1="13.781" y1="23.273" x2="14.836" y2="23.344" vector-effect="non-scaling-stroke" stroke-width="1" stroke="rgb(236,214,188)" stroke-linejoin="miter" stroke-linecap="square" stroke-miterlimit="3"/><line x1="18.668" y1="27.457" x2="19.512" y2="26.895" vector-effect="non-scaling-stroke" stroke-width="1" stroke="rgb(236,214,188)" stroke-linejoin="miter" stroke-linecap="square" stroke-miterlimit="3"/>
		</g>
			<g id="Arm3" transform="rotate(240, 20, 20)">
		<path d=" M 9.316 22.57 C 11.305 28.656 16.622 27.108 21.234 24.996" fill="none" vector-effect="non-scaling-stroke" stroke-width="1" stroke="rgb(240,230,116)" stroke-linejoin="miter" stroke-linecap="square" stroke-miterlimit="3"/><path d=" M 10.266 22.184 C 12.432 26.103 16.43 25.522 20.355 24.891" fill="none" vector-effect="non-scaling-stroke" stroke-width="1" stroke="rgb(240,230,116)" stroke-linejoin="miter" stroke-linecap="square" stroke-miterlimit="3"/><line x1="9.492" y1="21.727" x2="9.809" y2="22.676" vector-effect="non-scaling-stroke" stroke-width="1" stroke="rgb(240,230,116)" stroke-linejoin="miter" stroke-linecap="square" stroke-miterlimit="3"/><path d=" M 9.949 22.535 C 11.898 26.193 15.154 25.924 18.879 25.453" fill="none" vector-effect="non-scaling-stroke" stroke-width="1" stroke="rgb(230,211,158)" stroke-linejoin="miter" stroke-linecap="square" stroke-miterlimit="3"/><path d=" M 11.391 24.82 C 13.011 26.208 14.438 26.052 16.137 26.297" fill="none" vector-effect="non-scaling-stroke" stroke-width="1" stroke="rgb(236,214,188)" stroke-linejoin="miter" stroke-linecap="square" stroke-miterlimit="3"/><line x1="13.781" y1="23.273" x2="14.836" y2="23.344" vector-effect="non-scaling-stroke" stroke-width="1" stroke="rgb(236,214,188)" stroke-linejoin="miter" stroke-linecap="square" stroke-miterlimit="3"/><line x1="18.668" y1="27.457" x2="19.512" y2="26.895" vector-effect="non-scaling-stroke" stroke-width="1" stroke="rgb(236,214,188)" stroke-linejoin="miter" stroke-linecap="square" stroke-miterlimit="3"/>
		</g>
	</g>
</g></svg>