<?xml version="1.0" encoding="UTF-8" standalone="no"?><!-- Generator: Gravit.io --><svg xmlns="http://www.w3.org/2000/svg" xmlns:xlink="http://www.w3.org/1999/xlink" style="isolation:isolate" viewBox="0 0 30 30" width="30pt" height="30pt"><defs><clipPath id="_clipPath_q7XIzgvPnymonY47PTSDkevSZxEDqajj"><rect width="30" height="30"/></clipPath></defs><g clip-path="url(#_clipPath_q7XIzgvPnymonY47PTSDkevSZxEDqajj)"><mask id="_mask_m7Ooo0NrKQ4SUC3mb3IqTFObnmwB4ynQ"><circle vector-effect="non-scaling-stroke" cx="15" cy="15" r="15" fill="white" stroke="none"/></mask><circle vector-effect="non-scaling-stroke" cx="15" cy="15" r="15" fill="rgb(255,255,255)"/><circle vector-effect="non-scaling-stroke" cx="15" cy="15" r="15" fill="rgb(255,255,255)" mask="url(#_mask_m7Ooo0NrKQ4SUC3mb3IqTFObnmwB4ynQ)" stroke-width="4" stroke="rgb(0,0,0)" stroke-linejoin="miter" stroke-linecap="square" stroke-miterlimit="3"/><g>
  <animateTransform
    attributeName="transform"
    type="rotate"
    from="0 15 15"
    to="36 15 15"
    dur="1s"
    repeatCount="indefinite" />
<mask id="_mask_YiAYi4zCqUwVHGM6lToPoIVF0Pdo3UE4"><path d=" M 28.992 15.063 C 28.867 6.375 17.304 14.438 14.992 15" fill="white" stroke="none"/></mask><path d=" M 28.992 15.063 C 28.867 6.375 17.304 14.438 14.992 15" fill="none"/><path d=" M 28.992 15.063 C 28.867 6.375 17.304 14.438 14.992 15" fill="none" mask="url(#_mask_YiAYi4zCqUwVHGM6lToPoIVF0Pdo3UE4)" vector-effect="non-scaling-stroke" stroke-width="2" stroke="rgb(0,0,0)" stroke-linejoin="miter" stroke-linecap="square" stroke-miterlimit="3"/><mask id="_mask_O7YJOBBhf4tpoJQRyQoMt7QodUiknXNb"><path d=" M 26.284 23.277 C 31.289 16.175 17.196 15.901 14.994 14.997" fill="white" stroke="none"/></mask><path d=" M 26.284 23.277 C 31.289 16.175 17.196 15.901 14.994 14.997" fill="none"/><path d=" M 26.284 23.277 C 31.289 16.175 17.196 15.901 14.994 14.997" fill="none" mask="url(#_mask_O7YJOBBhf4tpoJQRyQoMt7QodUiknXNb)" vector-effect="non-scaling-stroke" stroke-width="2" stroke="rgb(0,0,0)" stroke-linejoin="miter" stroke-linecap="square" stroke-miterlimit="3"/><mask id="_mask_7IuZZq6d3mjxU5Wi2Q2su9RWx8pmut2l"><path d=" M 19.265 28.344 C 27.489 25.54 16.248 17.035 14.998 15.01" fill="white" stroke="none"/></mask><path d=" M 19.265 28.344 C 27.489 25.54 16.248 17.035 14.998 15.01" fill="none"/><path d=" M 19.265 28.344 C 27.489 25.54 16.248 17.035 14.998 15.01" fill="none" mask="url(#_mask_7IuZZq6d3mjxU5Wi2Q2su9RWx8pmut2l)" vector-effect="non-scaling-stroke" stroke-width="2" stroke="rgb(0,0,0)" stroke-linejoin="miter" stroke-linecap="square" stroke-miterlimit="3"/><mask id="_mask_wgT6QKPcguktM58Qid2rdAfK6QxkX24a"><path d=" M 10.616 28.307 C 18.917 30.873 14.822 17.385 15.002 15.011" fill="white" stroke="none"/></mask><path d=" M 10.616 28.307 C 18.917 30.873 14.822 17.385 15.002 15.011" fill="none"/><path d=" M 10.616 28.307 C 18.917 30.873 14.822 17.385 15.002 15.011" fill="none" mask="url(#_mask_wgT6QKPcguktM58Qid2rdAfK6QxkX24a)" vector-effect="non-scaling-stroke" stroke-width="2" stroke="rgb(0,0,0)" stroke-linejoin="miter" stroke-linecap="square" stroke-miterlimit="3"/><mask id="_mask_sBiD9FYVpo0ZQq9IX0CqG371yJHflPBN"><path d=" M 3.638 23.173 C 8.845 30.128 13.46 16.809 15.001 14.995" fill="white" stroke="none"/></mask><path d=" M 3.638 23.173 C 8.845 30.128 13.46 16.809 15.001 14.995" fill="none"/><path d=" M 3.638 23.173 C 8.845 30.128 13.46 16.809 15.001 14.995" fill="none" mask="url(#_mask_sBiD9FYVpo0ZQq9IX0CqG371yJHflPBN)" vector-effect="non-scaling-stroke" stroke-width="2" stroke="rgb(0,0,0)" stroke-linejoin="miter" stroke-linecap="square" stroke-miterlimit="3"/><mask id="_mask_VfZuqreVTWo8nUMjGzgC00dImwiBAiqt"><path d=" M 1 14.936 C 1.125 23.624 12.687 15.561 15 14.999" fill="white" stroke="none"/></mask><path d=" M 1 14.936 C 1.125 23.624 12.687 15.561 15 14.999" fill="none"/><path d=" M 1 14.936 C 1.125 23.624 12.687 15.561 15 14.999" fill="none" mask="url(#_mask_VfZuqreVTWo8nUMjGzgC00dImwiBAiqt)" vector-effect="non-scaling-stroke" stroke-width="2" stroke="rgb(0,0,0)" stroke-linejoin="miter" stroke-linecap="square" stroke-miterlimit="3"/><mask id="_mask_L6esjq069647adnDWB2qmTPGwy2HwUr9"><path d=" M 3.7 6.716 C -1.305 13.817 12.788 14.091 14.99 14.995" fill="white" stroke="none"/></mask><path d=" M 3.7 6.716 C -1.305 13.817 12.788 14.091 14.99 14.995" fill="none"/><path d=" M 3.7 6.716 C -1.305 13.817 12.788 14.091 14.99 14.995" fill="none" mask="url(#_mask_L6esjq069647adnDWB2qmTPGwy2HwUr9)" vector-effect="non-scaling-stroke" stroke-width="2" stroke="rgb(0,0,0)" stroke-linejoin="miter" stroke-linecap="square" stroke-miterlimit="3"/><mask id="_mask_l5iUCLNV2eCUQCb8Sl0okzrSRt4qx38l"><path d=" M 10.723 1.662 C 2.499 4.465 13.74 12.97 14.99 14.996" fill="white" stroke="none"/></mask><path d=" M 10.723 1.662 C 2.499 4.465 13.74 12.97 14.99 14.996" fill="none"/><path d=" M 10.723 1.662 C 2.499 4.465 13.74 12.97 14.99 14.996" fill="none" mask="url(#_mask_l5iUCLNV2eCUQCb8Sl0okzrSRt4qx38l)" vector-effect="non-scaling-stroke" stroke-width="2" stroke="rgb(0,0,0)" stroke-linejoin="miter" stroke-linecap="square" stroke-miterlimit="3"/><mask id="_mask_CtrP6Cqojo64P67SBjC9zFMQv02BcCXC"><path d=" M 19.379 1.708 C 11.078 -0.858 15.173 12.63 14.993 15.003" fill="white" stroke="none"/></mask><path d=" M 19.379 1.708 C 11.078 -0.858 15.173 12.63 14.993 15.003" fill="none"/><path d=" M 19.379 1.708 C 11.078 -0.858 15.173 12.63 14.993 15.003" fill="none" mask="url(#_mask_CtrP6Cqojo64P67SBjC9zFMQv02BcCXC)" vector-effect="non-scaling-stroke" stroke-width="2" stroke="rgb(0,0,0)" stroke-linejoin="miter" stroke-linecap="square" stroke-miterlimit="3"/><mask id="_mask_ryaHjKgNzYXSHyDkkW4kE8x87rTWBAGb"><path d=" M 26.355 6.821 C 21.147 -0.134 16.532 13.185 14.992 15" fill="white" stroke="none"/></mask><path d=" M 26.355 6.821 C 21.147 -0.134 16.532 13.185 14.992 15" fill="none"/><path d=" M 26.355 6.821 C 21.147 -0.134 16.532 13.185 14.992 15" fill="none" mask="url(#_mask_ryaHjKgNzYXSHyDkkW4kE8x87rTWBAGb)" vector-effect="non-scaling-stroke" stroke-width="2" stroke="rgb(0,0,0)" stroke-linejoin="miter" stroke-linecap="square" stroke-miterlimit="3"/></g><g>
  <animateTransform
    attributeName="transform"
    type="rotate"
    from="0 15 15"
    to="-36 15 15"
    dur="1s"
    repeatCount="indefinite" />
<mask id="_mask_ycUtfzaxDEyOQ7FeuHCROlDzXFOAfByb"><path d=" M 1 15.063 C 1.125 6.375 12.688 14.438 15 15" fill="white" stroke="none"/></mask><path d=" M 1 15.063 C 1.125 6.375 12.688 14.438 15 15" fill="none"/><path d=" M 1 15.063 C 1.125 6.375 12.688 14.438 15 15" fill="none" mask="url(#_mask_ycUtfzaxDEyOQ7FeuHCROlDzXFOAfByb)" vector-effect="non-scaling-stroke" stroke-width="2" stroke="rgb(0,0,0)" stroke-linejoin="miter" stroke-linecap="square" stroke-miterlimit="3"/><mask id="_mask_8al00UPUpfeiLGvNoP77zbodxXu78qQw"><path d=" M 3.708 23.277 C -1.298 16.175 12.796 15.901 14.997 14.997" fill="white" stroke="none"/></mask><path d=" M 3.708 23.277 C -1.298 16.175 12.796 15.901 14.997 14.997" fill="none"/><path d=" M 3.708 23.277 C -1.298 16.175 12.796 15.901 14.997 14.997" fill="none" mask="url(#_mask_8al00UPUpfeiLGvNoP77zbodxXu78qQw)" vector-effect="non-scaling-stroke" stroke-width="2" stroke="rgb(0,0,0)" stroke-linejoin="miter" stroke-linecap="square" stroke-miterlimit="3"/><mask id="_mask_uH1E5RcaPtUnJpVuRGKw6JTGyXLmnqdQ"><path d=" M 10.726 28.344 C 2.503 25.54 13.744 17.035 14.993 15.01" fill="white" stroke="none"/></mask><path d=" M 10.726 28.344 C 2.503 25.54 13.744 17.035 14.993 15.01" fill="none"/><path d=" M 10.726 28.344 C 2.503 25.54 13.744 17.035 14.993 15.01" fill="none" mask="url(#_mask_uH1E5RcaPtUnJpVuRGKw6JTGyXLmnqdQ)" vector-effect="non-scaling-stroke" stroke-width="2" stroke="rgb(0,0,0)" stroke-linejoin="miter" stroke-linecap="square" stroke-miterlimit="3"/><mask id="_mask_NC25X4DorkhvQh5AOfEoEb9Kqx7FhEo1"><path d=" M 19.376 28.307 C 11.075 30.873 15.169 17.385 14.99 15.011" fill="white" stroke="none"/></mask><path d=" M 19.376 28.307 C 11.075 30.873 15.169 17.385 14.99 15.011" fill="none"/><path d=" M 19.376 28.307 C 11.075 30.873 15.169 17.385 14.99 15.011" fill="none" mask="url(#_mask_NC25X4DorkhvQh5AOfEoEb9Kqx7FhEo1)" vector-effect="non-scaling-stroke" stroke-width="2" stroke="rgb(0,0,0)" stroke-linejoin="miter" stroke-linecap="square" stroke-miterlimit="3"/><mask id="_mask_xcNN8zNc54pHD60KzvZ8oAagpX8E8OKf"><path d=" M 26.354 23.173 C 21.146 30.128 16.531 16.809 14.991 14.995" fill="white" stroke="none"/></mask><path d=" M 26.354 23.173 C 21.146 30.128 16.531 16.809 14.991 14.995" fill="none"/><path d=" M 26.354 23.173 C 21.146 30.128 16.531 16.809 14.991 14.995" fill="none" mask="url(#_mask_xcNN8zNc54pHD60KzvZ8oAagpX8E8OKf)" vector-effect="non-scaling-stroke" stroke-width="2" stroke="rgb(0,0,0)" stroke-linejoin="miter" stroke-linecap="square" stroke-miterlimit="3"/><mask id="_mask_ZSKoMppiqJwq390FdiYg5JYM0J6oFtOt"><path d=" M 28.992 14.936 C 28.867 23.624 17.304 15.561 14.992 14.999" fill="white" stroke="none"/></mask><path d=" M 28.992 14.936 C 28.867 23.624 17.304 15.561 14.992 14.999" fill="none"/><path d=" M 28.992 14.936 C 28.867 23.624 17.304 15.561 14.992 14.999" fill="none" mask="url(#_mask_ZSKoMppiqJwq390FdiYg5JYM0J6oFtOt)" vector-effect="non-scaling-stroke" stroke-width="2" stroke="rgb(0,0,0)" stroke-linejoin="miter" stroke-linecap="square" stroke-miterlimit="3"/><mask id="_mask_pqS5XjqyKeN41WOlwPO5kmJDHltxnvfT"><path d=" M 26.291 6.716 C 31.297 13.817 17.203 14.091 15.002 14.995" fill="white" stroke="none"/></mask><path d=" M 26.291 6.716 C 31.297 13.817 17.203 14.091 15.002 14.995" fill="none"/><path d=" M 26.291 6.716 C 31.297 13.817 17.203 14.091 15.002 14.995" fill="none" mask="url(#_mask_pqS5XjqyKeN41WOlwPO5kmJDHltxnvfT)" vector-effect="non-scaling-stroke" stroke-width="2" stroke="rgb(0,0,0)" stroke-linejoin="miter" stroke-linecap="square" stroke-miterlimit="3"/><mask id="_mask_TfuMuqSfHme3hD2E53XiQEObtKD11WcO"><path d=" M 19.269 1.662 C 27.492 4.465 16.251 12.97 15.002 14.996" fill="white" stroke="none"/></mask><path d=" M 19.269 1.662 C 27.492 4.465 16.251 12.97 15.002 14.996" fill="none"/><path d=" M 19.269 1.662 C 27.492 4.465 16.251 12.97 15.002 14.996" fill="none" mask="url(#_mask_TfuMuqSfHme3hD2E53XiQEObtKD11WcO)" vector-effect="non-scaling-stroke" stroke-width="2" stroke="rgb(0,0,0)" stroke-linejoin="miter" stroke-linecap="square" stroke-miterlimit="3"/><mask id="_mask_2j56lSXZC5k1xig81thKC0JGG1uchdJd"><path d=" M 10.613 1.708 C 18.913 -0.858 14.819 12.63 14.998 15.003" fill="white" stroke="none"/></mask><path d=" M 10.613 1.708 C 18.913 -0.858 14.819 12.63 14.998 15.003" fill="none"/><path d=" M 10.613 1.708 C 18.913 -0.858 14.819 12.63 14.998 15.003" fill="none" mask="url(#_mask_2j56lSXZC5k1xig81thKC0JGG1uchdJd)" vector-effect="non-scaling-stroke" stroke-width="2" stroke="rgb(0,0,0)" stroke-linejoin="miter" stroke-linecap="square" stroke-miterlimit="3"/><mask id="_mask_P5ueYwcka6ZzjRB4cJw5TSOZHJgzmkFB"><path d=" M 3.637 6.821 C 8.844 -0.134 13.46 13.185 15 15" fill="white" stroke="none"/></mask><path d=" M 3.637 6.821 C 8.844 -0.134 13.46 13.185 15 15" fill="none"/><path d=" M 3.637 6.821 C 8.844 -0.134 13.46 13.185 15 15" fill="none" mask="url(#_mask_P5ueYwcka6ZzjRB4cJw5TSOZHJgzmkFB)" vector-effect="non-scaling-stroke" stroke-width="2" stroke="rgb(0,0,0)" stroke-linejoin="miter" stroke-linecap="square" stroke-miterlimit="3"/></g><mask id="_mask_pRTH3FrHaFfveOvctAawF2vRPthhrJX7"><circle vector-effect="non-scaling-stroke" cx="15" cy="15" r="6.5" fill="white" stroke="none"/></mask><circle vector-effect="non-scaling-stroke" cx="15" cy="15" r="6.5" fill="rgb(255,255,255)"/><circle vector-effect="non-scaling-stroke" cx="15" cy="15" r="6.5" fill="rgb(255,255,255)" mask="url(#_mask_pRTH3FrHaFfveOvctAawF2vRPthhrJX7)" stroke-width="4" stroke="rgb(0,0,0)" stroke-linejoin="miter" stroke-linecap="square" stroke-miterlimit="3"/><g>
  <animateTransform
    attributeName="transform"
    type="rotate"
    from="0 15 15"
    to="120 15 15"
    dur="2s"
    repeatCount="indefinite" /><mask id="_mask_bVrN8FREb5cZxW0AINEIiq3segkhIi8h"><circle vector-effect="non-scaling-stroke" cx="14.959374999999996" cy="12.599999999999996" r="2.0999999999999996" fill="white" stroke="none"/></mask><circle vector-effect="non-scaling-stroke" cx="14.959374999999996" cy="12.599999999999996" r="2.0999999999999996" fill="none"/><circle vector-effect="non-scaling-stroke" cx="14.959374999999996" cy="12.599999999999996" r="2.0999999999999996" fill="none" mask="url(#_mask_bVrN8FREb5cZxW0AINEIiq3segkhIi8h)" stroke-width="2" stroke="rgb(0,0,0)" stroke-linejoin="miter" stroke-linecap="square" stroke-miterlimit="3"/><mask id="_mask_V8ePiKTz9c1k6HLeenLDJ8kAyFeHxEYa"><circle vector-effect="non-scaling-stroke" cx="17.09999999999999" cy="16.193749999999998" r="2.1000000000000014" fill="white" stroke="none"/></mask><circle vector-effect="non-scaling-stroke" cx="17.09999999999999" cy="16.193749999999998" r="2.1000000000000014" fill="none"/><circle vector-effect="non-scaling-stroke" cx="17.09999999999999" cy="16.193749999999998" r="2.1000000000000014" fill="none" mask="url(#_mask_V8ePiKTz9c1k6HLeenLDJ8kAyFeHxEYa)" stroke-width="2" stroke="rgb(0,0,0)" stroke-linejoin="miter" stroke-linecap="square" stroke-miterlimit="3"/><mask id="_mask_i0jnNXt5HCbAZbVzxP8UV67bFBc9C65A"><circle vector-effect="non-scaling-stroke" cx="12.943749999999993" cy="16.303125" r="2.0999999999999996" fill="white" stroke="none"/></mask><circle vector-effect="non-scaling-stroke" cx="12.943749999999993" cy="16.303125" r="2.0999999999999996" fill="none"/><circle vector-effect="non-scaling-stroke" cx="12.943749999999993" cy="16.303125" r="2.0999999999999996" fill="none" mask="url(#_mask_i0jnNXt5HCbAZbVzxP8UV67bFBc9C65A)" stroke-width="2" stroke="rgb(0,0,0)" stroke-linejoin="miter" stroke-linecap="square" stroke-miterlimit="3"/></g>
	<g>
  <animateTransform
    attributeName="transform"
    type="rotate"
    from="0 15 15"
    to="-120 15 15"
    dur="2s"
    repeatCount="indefinite" /><mask id="_mask_XX6w2y6tZFHStC3sNsTLoHWLMe4uuD47"><circle vector-effect="non-scaling-stroke" cx="14.959374999999996" cy="12.599999999999996" r="2.0999999999999996" fill="white" stroke="none"/></mask><circle vector-effect="non-scaling-stroke" cx="14.959374999999996" cy="12.599999999999996" r="2.0999999999999996" fill="none"/><circle vector-effect="non-scaling-stroke" cx="14.959374999999996" cy="12.599999999999996" r="2.0999999999999996" fill="none" mask="url(#_mask_XX6w2y6tZFHStC3sNsTLoHWLMe4uuD47)" stroke-width="2" stroke="rgb(0,0,0)" stroke-linejoin="miter" stroke-linecap="square" stroke-miterlimit="3"/><mask id="_mask_9g8YPjBUWSodh0l1dw3jdLsxayTGuBzz"><circle vector-effect="non-scaling-stroke" cx="17.09999999999999" cy="16.193749999999998" r="2.1000000000000014" fill="white" stroke="none"/></mask><circle vector-effect="non-scaling-stroke" cx="17.09999999999999" cy="16.193749999999998" r="2.1000000000000014" fill="none"/><circle vector-effect="non-scaling-stroke" cx="17.09999999999999" cy="16.193749999999998" r="2.1000000000000014" fill="none" mask="url(#_mask_9g8YPjBUWSodh0l1dw3jdLsxayTGuBzz)" stroke-width="2" stroke="rgb(0,0,0)" stroke-linejoin="miter" stroke-linecap="square" stroke-miterlimit="3"/><mask id="_mask_WXscjsoz9RZ6uNjfeIBEGE8ylWmm3mcC"><circle vector-effect="non-scaling-stroke" cx="12.943749999999993" cy="16.303125" r="2.0999999999999996" fill="white" stroke="none"/></mask><circle vector-effect="non-scaling-stroke" cx="12.943749999999993" cy="16.303125" r="2.0999999999999996" fill="none"/><circle vector-effect="non-scaling-stroke" cx="12.943749999999993" cy="16.303125" r="2.0999999999999996" fill="none" mask="url(#_mask_WXscjsoz9RZ6uNjfeIBEGE8ylWmm3mcC)" stroke-width="2" stroke="rgb(0,0,0)" stroke-linejoin="miter" stroke-linecap="square" stroke-miterlimit="3"/></g></g></svg>