<?xml version="1.0" encoding="UTF-8" standalone="no"?><!-- Generator: Gravit.io --><svg xmlns="http://www.w3.org/2000/svg" xmlns:xlink="http://www.w3.org/1999/xlink" style="isolation:isolate" viewBox="0 0 84 64" width="84pt" height="64pt"><defs><clipPath id="_clipPath_KKfuy4tPFa1kdtTmQ97OrSMUpZYpBkb0"><rect width="84" height="64"/></clipPath></defs><g clip-path="url(#_clipPath_KKfuy4tPFa1kdtTmQ97OrSMUpZYpBkb0)"><g style="isolation:isolate"><path d=" M 43.912 47.034 C 56.333 40.823 69.762 34.109 70 34 C 70.547 33.75 72.117 32.813 72 31.45 C 71.887 30.14 71.438 29.836 70 29 C 69.538 28.731 67.791 27.832 64.399 26.127" fill="rgb(176,121,140)"/><path d=" M 64.399 26.127 C 59.431 23.598 20.256 4.12 20 4 C 19.744 3.88 18.657 3.575 18 4 C 16.828 4.758 16.619 5.938 16.7 7 C 16.715 7.197 16.709 56.034 16.7 57 C 16.688 58.406 17.344 58.75 18 59 C 18.656 59.25 19.434 59.289 20 59 C 20.116 58.941 31.55 53.219 43.912 47.034" fill="rgb(176,121,140)"/><g><path d=" M 42.619 47.749 C 42.591 47.772 42.561 47.793 42.532 47.815" fill="none" vector-effect="non-scaling-stroke" stroke-width="2" stroke="rgb(83,57,70)" stroke-linejoin="round" stroke-linecap="butt" stroke-miterlimit="1.414"/><path d=" M 44.067 46.638 C 43.968 46.717 43.869 46.795 43.769 46.873" fill="none" vector-effect="non-scaling-stroke" stroke-width="2" stroke="rgb(83,57,70)" stroke-linejoin="round" stroke-linecap="butt" stroke-miterlimit="1.414"/><path d=" M 43.769 46.873 C 43.625 46.985 43.48 47.096 43.334 47.207" fill="none" vector-effect="non-scaling-stroke" stroke-width="2" stroke="rgb(83,57,70)" stroke-linejoin="round" stroke-linecap="butt" stroke-miterlimit="1.414"/><path d=" M 61.929 24.653 C 59.729 31.139 53.043 39.635 44.067 46.638" fill="none" vector-effect="non-scaling-stroke" stroke-width="2" stroke="rgb(83,57,70)" stroke-linejoin="round" stroke-linecap="butt" stroke-miterlimit="1.414"/><path d=" M 43.334 47.207 C 43.099 47.39 42.86 47.57 42.619 47.749" fill="none" vector-effect="non-scaling-stroke" stroke-width="2" stroke="rgb(83,57,70)" stroke-linejoin="round" stroke-linecap="butt" stroke-miterlimit="1.414"/><path d=" M 51.15 19.393 C 47.629 32.56 34.699 51.54 17.69 59.161" fill="none" vector-effect="non-scaling-stroke" stroke-width="2" stroke="rgb(83,57,70)" stroke-linejoin="round" stroke-linecap="butt" stroke-miterlimit="1.414"/><path d=" M 39.932 14.074 C 39.235 27.728 31.723 47.83 18.008 59.003" fill="none" vector-effect="non-scaling-stroke" stroke-width="2" stroke="rgb(83,57,70)" stroke-linejoin="round" stroke-linecap="butt" stroke-miterlimit="1.414"/><path d=" M 39.95 13.806 C 39.946 13.893 39.942 13.981 39.932 14.074" fill="none" vector-effect="non-scaling-stroke" stroke-width="2" stroke="rgb(83,57,70)" stroke-linejoin="round" stroke-linecap="butt" stroke-miterlimit="1.414"/><path d=" M 27.004 7.289 C 30.762 20.326 29.168 43.687 18.086 59.016" fill="none" vector-effect="non-scaling-stroke" stroke-width="2" stroke="rgb(83,57,70)" stroke-linejoin="round" stroke-linecap="butt" stroke-miterlimit="1.414"/><path d=" M 26.959 7.122 C 26.975 7.176 26.991 7.23 27.004 7.289" fill="none" vector-effect="non-scaling-stroke" stroke-width="2" stroke="rgb(83,57,70)" stroke-linejoin="round" stroke-linecap="butt" stroke-miterlimit="1.414"/><path d=" M 16.591 13.683 C 21.444 26.131 23.551 44.348 17.986 58.948" fill="none" vector-effect="non-scaling-stroke" stroke-width="2" stroke="rgb(83,57,70)" stroke-linejoin="round" stroke-linecap="butt" stroke-miterlimit="1.414"/><path d=" M 16.699 42.316 C 17.885 47.819 18.355 53.472 17.794 58.939" fill="none" vector-effect="non-scaling-stroke" stroke-width="2" stroke="rgb(83,57,70)" stroke-linejoin="round" stroke-linecap="butt" stroke-miterlimit="1.414"/><path d=" M 16.696 42.299 C 16.697 42.305 16.698 42.31 16.699 42.316" fill="none" vector-effect="non-scaling-stroke" stroke-width="2" stroke="rgb(83,57,70)" stroke-linejoin="round" stroke-linecap="butt" stroke-miterlimit="1.414"/></g><g><path d=" M 24.225 56.958 C 24.144 56.837 24.064 56.715 23.985 56.588" fill="none" vector-effect="non-scaling-stroke" stroke-width="2" stroke="rgb(83,57,70)" stroke-linejoin="round" stroke-linecap="butt" stroke-miterlimit="1.414"/><path d=" M 23.985 56.588 C 20.987 51.946 18.389 45.22 16.868 37.624" fill="none" vector-effect="non-scaling-stroke" stroke-width="2" stroke="rgb(83,57,70)" stroke-linejoin="round" stroke-linecap="butt" stroke-miterlimit="1.414"/><path d=" M 35.052 51.714 C 35.035 51.695 35.018 51.677 35.001 51.656" fill="none" vector-effect="non-scaling-stroke" stroke-width="2" stroke="rgb(83,57,70)" stroke-linejoin="round" stroke-linecap="butt" stroke-miterlimit="1.414"/><path d=" M 35.001 51.656 C 25.721 41.605 16.575 21.796 18.406 3.971" fill="none" vector-effect="non-scaling-stroke" stroke-width="2" stroke="rgb(83,57,70)" stroke-linejoin="round" stroke-linecap="butt" stroke-miterlimit="1.414"/><path d=" M 46.5 45.89 C 34.988 38.507 21.216 21.875 18.384 4.326" fill="none" vector-effect="non-scaling-stroke" stroke-width="2" stroke="rgb(83,57,70)" stroke-linejoin="round" stroke-linecap="butt" stroke-miterlimit="1.414"/><path d=" M 61.52 38.563 C 48.467 36.634 26.645 22.936 18.334 4.387" fill="none" vector-effect="non-scaling-stroke" stroke-width="2" stroke="rgb(83,57,70)" stroke-linejoin="round" stroke-linecap="butt" stroke-miterlimit="1.414"/><path d=" M 64.426 26.35 C 50.748 25.963 29.896 18.409 18.443 4.334" fill="none" vector-effect="non-scaling-stroke" stroke-width="2" stroke="rgb(83,57,70)" stroke-linejoin="round" stroke-linecap="butt" stroke-miterlimit="1.414"/><path d=" M 37.584 12.702 C 30.763 10.98 24.124 8.204 18.547 4.173" fill="rgb(195,207,217)" vector-effect="non-scaling-stroke" stroke-width="2" stroke="rgb(83,57,70)" stroke-linejoin="round" stroke-linecap="butt" stroke-miterlimit="1.414"/></g><g><path d=" M 17.167 11.108 C 20.472 9.625 25.685 9.327 31.742 10.174" fill="none" vector-effect="non-scaling-stroke" stroke-width="2" stroke="rgb(83,57,70)" stroke-linejoin="round" stroke-linecap="butt" stroke-miterlimit="1.414"/><path d=" M 31.742 10.174 C 31.8 10.179 31.861 10.188 31.922 10.197" fill="none" vector-effect="non-scaling-stroke" stroke-width="2" stroke="rgb(83,57,70)" stroke-linejoin="round" stroke-linecap="butt" stroke-miterlimit="1.414"/><path d=" M 16.7 23.656 C 26.825 19.076 47.973 18.91 64.471 26.716" fill="none" vector-effect="non-scaling-stroke" stroke-width="2" stroke="rgb(83,57,70)" stroke-linejoin="round" stroke-linecap="butt" stroke-miterlimit="1.414"/><path d=" M 64.471 26.716 C 67.22 27.977 69.827 29.484 72.235 31.225" fill="none" vector-effect="non-scaling-stroke" stroke-width="2" stroke="rgb(83,57,70)" stroke-linejoin="round" stroke-linecap="butt" stroke-miterlimit="1.414"/><path d=" M 16.739 37.828 C 26.99 29.754 52.625 23.68 71.939 31.029" fill="none" vector-effect="non-scaling-stroke" stroke-width="2" stroke="rgb(83,57,70)" stroke-linejoin="round" stroke-linecap="butt" stroke-miterlimit="1.414"/><path d=" M 17.526 58.621 C 17.074 48.032 46.508 28.346 71.911 30.955" fill="none" vector-effect="non-scaling-stroke" stroke-width="2" stroke="rgb(83,57,70)" stroke-linejoin="round" stroke-linecap="butt" stroke-miterlimit="1.414"/><path d=" M 37.957 49.812 C 38.115 49.653 38.274 49.495 38.439 49.337" fill="none" vector-effect="non-scaling-stroke" stroke-width="2" stroke="rgb(83,57,70)" stroke-linejoin="round" stroke-linecap="butt" stroke-miterlimit="1.414"/><g><path d=" M 42.6 45.558 C 50.737 38.641 61.149 32.805 71.902 31.075" fill="none" vector-effect="non-scaling-stroke" stroke-width="2" stroke="rgb(83,57,70)" stroke-linejoin="round" stroke-linecap="butt" stroke-miterlimit="1.414"/><path d=" M 37.391 50.391 C 39.02 48.747 40.754 47.126 42.6 45.558" fill="none" vector-effect="non-scaling-stroke" stroke-width="2" stroke="rgb(83,57,70)" stroke-linejoin="round" stroke-linecap="butt" stroke-miterlimit="1.414"/></g><path d=" M 59.126 39.673 C 63.029 36.239 67.358 33.322 71.99 31.246" fill="none" vector-effect="non-scaling-stroke" stroke-width="2" stroke="rgb(83,57,70)" stroke-linejoin="round" stroke-linecap="butt" stroke-miterlimit="1.414"/></g><path d=" M 43.912 47.034 C 56.333 40.823 69.762 34.109 70 34 C 70.547 33.75 72.117 32.813 72 31.45 C 71.887 30.14 71.438 29.836 70 29 C 69.538 28.731 67.791 27.832 64.399 26.127" fill="none" vector-effect="non-scaling-stroke" stroke-width="2" stroke="rgb(47,29,38)" stroke-linejoin="miter" stroke-linecap="square" stroke-miterlimit="3"/><path d=" M 64.399 26.127 C 61.958 24.884 20.13 4.061 20 4 C 19.744 3.88 18.657 3.575 18 4 C 16.828 4.758 16.619 5.938 16.7 7 C 16.715 7.197 16.709 56.034 16.7 57 C 16.688 58.406 17.344 58.75 18 59 C 18.656 59.25 19.434 59.289 20 59 C 20.116 58.941 31.55 53.219 43.912 47.034" fill="none" vector-effect="non-scaling-stroke" stroke-width="2" stroke="rgb(47,29,38)" stroke-linejoin="miter" stroke-linecap="square" stroke-miterlimit="3"/></g></g></svg>